<svg xmlns="http://www.w3.org/2000/svg" xmlns:xlink="http://www.w3.org/1999/xlink" contentStyleType="text/css" data-diagram-type="STATE" height="568px" preserveAspectRatio="none" style="width:405px;height:568px;background:#FFFFFF;" version="1.1" viewBox="0 0 405 568" width="405px" zoomAndPan="magnify"><defs/><g><g id="IDLE"><rect fill="#F1F1F1" height="50.6211" rx="12.5" ry="12.5" style="stroke:#181818;stroke-width:0.5;" width="206.8672" x="73.24" y="87"/><line style="stroke:#181818;stroke-width:0.5;" x1="73.24" x2="280.1072" y1="113.4883" y2="113.4883"/><text fill="#000000" font-family="sans-serif" font-size="14" lengthAdjust="spacing" textLength="29.5723" x="161.8875" y="105.5352">IDLE</text><text fill="#000000" font-family="sans-serif" font-size="12" lengthAdjust="spacing" textLength="186.8672" x="78.24" y="130.0898">enter / UpdateAnimation("idle");</text></g><g id="MOVE_TO_TARGET"><rect fill="#F1F1F1" height="64.7539" rx="12.5" ry="12.5" style="stroke:#181818;stroke-width:0.5;" width="231.3418" x="7" y="356.37"/><line style="stroke:#181818;stroke-width:0.5;" x1="7" x2="238.3418" y1="382.8583" y2="382.8583"/><text fill="#000000" font-family="sans-serif" font-size="14" lengthAdjust="spacing" textLength="127.3262" x="59.0078" y="374.9052">MOVE_TO_TARGET</text><text fill="#000000" font-family="sans-serif" font-size="12" lengthAdjust="spacing" textLength="211.3418" x="12" y="399.4598">enter / UpdateAnimation("running");</text><text fill="#000000" font-family="sans-serif" font-size="12" lengthAdjust="spacing" textLength="152.0918" x="12" y="413.5927">do / MoveTowardTarget();</text></g><g id="GET_NEW_TARGET"><rect fill="#F1F1F1" height="64.7539" rx="12.5" ry="12.5" style="stroke:#181818;stroke-width:0.5;" width="165.6934" x="93.82" y="214.62"/><line style="stroke:#181818;stroke-width:0.5;" x1="93.82" x2="259.5134" y1="241.1083" y2="241.1083"/><text fill="#000000" font-family="sans-serif" font-size="14" lengthAdjust="spacing" textLength="124.3867" x="114.4733" y="233.1552">GET_NEW_TARGET</text><text fill="#000000" font-family="sans-serif" font-size="12" lengthAdjust="spacing" textLength="143.1855" x="98.82" y="257.7098">enter / FindNewTarget();</text><text fill="#000000" font-family="sans-serif" font-size="12" lengthAdjust="spacing" textLength="145.6934" x="98.82" y="271.8427">enter / RotateToTarget();</text></g><g id="PAUSED"><rect fill="#F1F1F1" height="64.7539" rx="12.5" ry="12.5" style="stroke:#181818;stroke-width:0.5;" width="176.6797" x="109.33" y="498.13"/><line style="stroke:#181818;stroke-width:0.5;" x1="109.33" x2="286.0097" y1="524.6183" y2="524.6183"/><text fill="#000000" font-family="sans-serif" font-size="14" lengthAdjust="spacing" textLength="52.7119" x="171.3139" y="516.6652">PAUSED</text><text fill="#000000" font-family="sans-serif" font-size="12" lengthAdjust="spacing" textLength="152.6777" x="114.33" y="541.2198">enter / PauseMove = true;</text><text fill="#000000" font-family="sans-serif" font-size="12" lengthAdjust="spacing" textLength="156.6797" x="114.33" y="555.3527">exit / ResumeMove = true;</text></g><ellipse cx="176.67" cy="16" fill="#222222" rx="10" ry="10" style="stroke:#222222;stroke-width:1;"/><!--link *start* to IDLE--><g class="link" data-entity-1=".start." data-entity-2="IDLE" data-source-line="1" data-uid="lnk3" id="link_.start._IDLE"><path d="M176.67,26.38 C176.67,40.36 176.67,61.12 176.67,80.87" fill="none" id="*start*-to-IDLE" style="stroke:#181818;stroke-width:1;"/><polygon fill="#181818" points="176.67,86.87,180.67,77.87,176.67,81.87,172.67,77.87,176.67,86.87" style="stroke:#181818;stroke-width:1;"/></g><!--link IDLE to GET_NEW_TARGET--><g class="link" data-entity-1="IDLE" data-entity-2="GET_NEW_TARGET" data-source-line="2" data-uid="lnk4" id="link_IDLE_GET_NEW_TARGET"><path d="M176.67,137.95 C176.67,159.54 176.67,185.03 176.67,208.44" fill="none" id="IDLE-to-GET_NEW_TARGET" style="stroke:#181818;stroke-width:1;"/><polygon fill="#181818" points="176.67,214.44,180.67,205.44,176.67,209.44,172.67,205.44,176.67,214.44" style="stroke:#181818;stroke-width:1;"/><text fill="#000000" font-family="sans-serif" font-size="13" lengthAdjust="spacing" textLength="70.8335" x="177.67" y="181.1884">[StartMove]</text></g><!--link GET_NEW_TARGET to MOVE_TO_TARGET--><g class="link" data-entity-1="GET_NEW_TARGET" data-entity-2="MOVE_TO_TARGET" data-source-line="3" data-uid="lnk5" id="link_GET_NEW_TARGET_MOVE_TO_TARGET"><path d="M155.51,279.87 C150.07,289.1 144.64,299.38 140.67,309.37 C134.74,324.29 131.6704,335.7433 128.8004,350.3033" fill="none" id="GET_NEW_TARGET-to-MOVE_TO_TARGET" style="stroke:#181818;stroke-width:1;"/><polygon fill="#181818" points="127.64,356.19,133.305,348.1335,128.607,351.2844,125.4561,346.5863,127.64,356.19" style="stroke:#181818;stroke-width:1;"/></g><!--link MOVE_TO_TARGET to GET_NEW_TARGET--><g class="link" data-entity-1="MOVE_TO_TARGET" data-entity-2="GET_NEW_TARGET" data-source-line="4" data-uid="lnk6" id="link_MOVE_TO_TARGET_GET_NEW_TARGET"><path d="M134.88,356.16 C143.7,333.32 153.4168,308.1765 162.2568,285.3065" fill="none" id="MOVE_TO_TARGET-to-GET_NEW_TARGET" style="stroke:#181818;stroke-width:1;"/><polygon fill="#181818" points="164.42,279.71,157.4442,286.6626,162.6173,284.3737,164.9062,289.5469,164.42,279.71" style="stroke:#181818;stroke-width:1;"/><text fill="#000000" font-family="sans-serif" font-size="13" lengthAdjust="spacing" textLength="112.5503" x="153.9" y="322.9384">[IsTargetReached]</text></g><!--link GET_NEW_TARGET to PAUSED--><g class="link" data-entity-1="GET_NEW_TARGET" data-entity-2="PAUSED" data-source-line="5" data-uid="lnk7" id="link_GET_NEW_TARGET_PAUSED"><path d="M247.39,279.72 C258.34,287.79 268.16,297.6 274.67,309.37 C291.25,339.31 398.68,199.08 268.67,468.13 C263.28,479.28 259.2585,485.1509 250.0385,493.6209" fill="none" id="GET_NEW_TARGET-to-PAUSED" style="stroke:#181818;stroke-width:1;"/><polygon fill="#181818" points="245.62,497.68,254.9539,494.537,249.3021,494.2974,249.5417,488.6456,245.62,497.68" style="stroke:#181818;stroke-width:1;"/><text fill="#000000" font-family="sans-serif" font-size="13" lengthAdjust="spacing" textLength="77.9111" x="318.34" y="393.8184">[PauseMove]</text></g><!--link MOVE_TO_TARGET to PAUSED--><g class="link" data-entity-1="MOVE_TO_TARGET" data-entity-2="PAUSED" data-source-line="6" data-uid="lnk8" id="link_MOVE_TO_TARGET_PAUSED"><path d="M86.25,421.51 C74.32,435.8 66.26,452.86 75.67,468.13 C83.82,481.35 90.6847,488.6517 103.9847,496.9217" fill="none" id="MOVE_TO_TARGET-to-PAUSED" style="stroke:#181818;stroke-width:1;"/><polygon fill="#181818" points="109.08,500.09,103.5492,491.9407,104.8339,497.4498,99.3249,498.7344,109.08,500.09" style="stroke:#181818;stroke-width:1;"/><text fill="#000000" font-family="sans-serif" font-size="13" lengthAdjust="spacing" textLength="77.9111" x="76.67" y="464.6984">[PauseMove]</text></g><!--link PAUSED to MOVE_TO_TARGET--><g class="link" data-entity-1="PAUSED" data-entity-2="MOVE_TO_TARGET" data-source-line="7" data-uid="lnk9" id="link_PAUSED_MOVE_TO_TARGET"><path d="M182.6,497.98 C175.55,483.57 166.92,466.36 158.67,451.13 C153.38,441.35 150.4012,436.0322 144.8212,426.5422" fill="none" id="PAUSED-to-MOVE_TO_TARGET" style="stroke:#181818;stroke-width:1;"/><polygon fill="#181818" points="141.78,421.37,142.8936,431.1557,144.3143,425.6801,149.7899,427.1008,141.78,421.37" style="stroke:#181818;stroke-width:1;"/><text fill="#000000" font-family="sans-serif" font-size="13" lengthAdjust="spacing" textLength="91.146" x="168.62" y="464.6984">[ResumeMove]</text></g><!--SRC=[VP1TQy8m58RlyokoCj0DdFVA1aMh5AQLjcuN8YKi1msqIKbFvs3utvTexMPRTnFoyPxd3S_cSKi7WnVgJryzOfVJQUx5oT9xJs8tD5iwefi8cSQ5-eGjQJpQ_29uyv8ugAx8zV46qIzYfdU08R2FFV1ExifTHzxKfbUiBE3Stq7lp5MNxV_PN0X5cLN10Xd2oG3z9lIy6L6G29eEwJhdvjcL8cCebEmxWgVWF8p9iHfim2sYrNSJfaifXTnPNiSOLsR6VZ9M1wRvMLZ_JtV3cUrkcRvqpuJaIpZyGlx9XihYOzLkhApQfjhwPQgMJvyfwXB6Lw4lWPPSYwz3HqA6lJjwFmcMCtzkegYob4HPQDo0ZW3H62gUK3DPv285xNCpwqoYFTEvGth37m00]--></g></svg>